<?xml version="1.0" encoding="UTF-8" standalone="no"?>
<!-- Created with Inkscape (http://www.inkscape.org/) -->

<svg
   xmlns:dc="http://purl.org/dc/elements/1.1/"
   xmlns:cc="http://creativecommons.org/ns#"
   xmlns:rdf="http://www.w3.org/1999/02/22-rdf-syntax-ns#"
   xmlns:svg="http://www.w3.org/2000/svg"
   xmlns="http://www.w3.org/2000/svg"
   xmlns:sodipodi="http://sodipodi.sourceforge.net/DTD/sodipodi-0.dtd"
   xmlns:inkscape="http://www.inkscape.org/namespaces/inkscape"
   width="512"
   height="512"
   viewBox="0 0 135.46666 135.46667"
   version="1.1"
   id="svg8"
   sodipodi:docname="baby cthulhu.svg"
   inkscape:version="0.92.2 (5c3e80d, 2017-08-06)"
   inkscape:export-filename="E:\School\CSC-221\Git\Final\klima\static\images\pets\babycthulhu.png"
   inkscape:export-xdpi="48"
   inkscape:export-ydpi="48">
  <defs
     id="defs2" />
  <sodipodi:namedview
     id="base"
     pagecolor="#ffffff"
     bordercolor="#666666"
     borderopacity="1.0"
     inkscape:pageopacity="0.0"
     inkscape:pageshadow="2"
     inkscape:zoom="0.70710678"
     inkscape:cx="343.76364"
     inkscape:cy="117.16169"
     inkscape:document-units="px"
     inkscape:current-layer="layer1"
     showgrid="false"
     inkscape:snap-global="false"
     inkscape:window-width="1920"
     inkscape:window-height="1028"
     inkscape:window-x="-8"
     inkscape:window-y="-8"
     inkscape:window-maximized="1"
     units="px" />
  <metadata
     id="metadata5">
    <rdf:RDF>
      <cc:Work
         rdf:about="">
        <dc:format>image/svg+xml</dc:format>
        <dc:type
           rdf:resource="http://purl.org/dc/dcmitype/StillImage" />
        <dc:title></dc:title>
      </cc:Work>
    </rdf:RDF>
  </metadata>
  <g
     inkscape:label="Layer 1"
     inkscape:groupmode="layer"
     id="layer1"
     transform="translate(0,-161.53331)">
    <path
       style="opacity:1;vector-effect:none;fill:#ac5a36;fill-opacity:1;stroke:#000000;stroke-width:2.11666656;stroke-linecap:butt;stroke-linejoin:miter;stroke-miterlimit:4;stroke-dasharray:none;stroke-dashoffset:0;stroke-opacity:1"
       d="m 187.72876,213.39164 8.73125,52.12292 41.275,19.05 26.9875,-27.25209 4.49792,-46.56666 z"
       id="path5203"
       inkscape:connector-curvature="0"
       sodipodi:nodetypes="cccccc" />
    <path
       style="opacity:1;vector-effect:none;fill:#aa6f55;fill-opacity:1;stroke:none;stroke-width:1.05833328;stroke-linecap:butt;stroke-linejoin:miter;stroke-miterlimit:4;stroke-dasharray:none;stroke-dashoffset:0;stroke-opacity:1"
       d="m 209.02772,259.29685 c -1.49839,0.91486 -2.06991,3.01605 -2.24896,4.7625 -0.13417,1.30869 0.66443,2.54719 0.92604,3.83646 0.11752,0.57913 0.28866,1.74913 0.28866,1.74913 l 29.43822,13.54855 13.83016,-13.8094 c 0,0 2.08178,-3.43701 1.42213,-5.06016 -1.09349,-2.69069 -4.71922,-5.05498 -7.54062,-4.36562 -2.23411,0.54586 -1.94432,4.34024 -3.70417,5.82083 -0.87733,0.73811 -2.03781,1.46895 -3.175,1.32292 -3.90152,-0.50102 -5.68666,-5.82538 -9.39271,-7.14375 -6.23547,-2.21817 -14.19512,-4.11028 -19.84375,-0.66146 z"
       id="path5243"
       inkscape:connector-curvature="0"
       sodipodi:nodetypes="aaacccaaaaaa" />
    <path
       style="opacity:1;vector-effect:none;fill:#8d412c;fill-opacity:1;stroke:#000000;stroke-width:2.11666656;stroke-linecap:butt;stroke-linejoin:miter;stroke-miterlimit:4;stroke-dasharray:none;stroke-dashoffset:0;stroke-opacity:1"
       d="m 238.79335,232.17706 30.42708,-21.43125 -47.36042,-15.08125 -34.13125,17.72708"
       id="path5199"
       inkscape:connector-curvature="0"
       sodipodi:nodetypes="cccc" />
    <path
       style="opacity:1;vector-effect:none;fill:none;fill-opacity:1;stroke:#000000;stroke-width:2.11666656;stroke-linecap:butt;stroke-linejoin:miter;stroke-miterlimit:4;stroke-dasharray:none;stroke-dashoffset:0;stroke-opacity:1"
       d="m 221.86001,195.66456 0.58842,27.2483"
       id="path5227"
       inkscape:connector-curvature="0"
       sodipodi:nodetypes="cc" />
    <g
       transform="matrix(0.82605266,0,0,1,40.853761,-7.4083334)"
       id="g4523"
       style="stroke-width:1.10026205" />
    <g
       id="g4634"
       transform="matrix(1.1671726,0,0,1.1671726,-193.45525,105.115)"
       style="stroke-width:0.85677135">
      <path
         inkscape:connector-curvature="0"
         id="path4542"
         d="m 67.601041,119.59687 5.820833,-5.02708 3.175,-9.65729 -4.101042,-8.863544 -16.536458,-1.5875 -8.069791,10.847914 4.365625,10.58334 8.863541,3.96875 z"
         style="opacity:1;vector-effect:none;fill:#f1caea;fill-opacity:1;stroke:none;stroke-width:0.90674961;stroke-linecap:butt;stroke-linejoin:miter;stroke-miterlimit:4;stroke-dasharray:none;stroke-dashoffset:0;stroke-opacity:1" />
      <path
         sodipodi:nodetypes="caaccccc"
         inkscape:connector-curvature="0"
         id="path4629"
         d="m 71.437499,96.18125 c 0,0 -9.095422,1.456774 -12.170833,4.49792 -2.282724,2.25729 -3.151278,5.79848 -3.439583,8.99583 -0.257868,2.8598 1.5875,8.46667 1.5875,8.46667 l -7.9375,-5.82084 -0.529167,-10.58333 11.377083,-7.672917 z"
         style="opacity:1;vector-effect:none;fill:#ab99e4;fill-opacity:1;stroke:none;stroke-width:0.90674961;stroke-linecap:butt;stroke-linejoin:miter;stroke-miterlimit:4;stroke-dasharray:none;stroke-dashoffset:0;stroke-opacity:1" />
      <path
         inkscape:connector-curvature="0"
         id="path4537"
         d="m 70.803935,93.815647 c -2.715112,-1.571146 -5.888489,-2.421519 -8.809959,-2.188684 -6.490299,0.517263 -13.98931,5.159482 -15.864788,11.394387 -1.551559,5.15806 1.5663,11.70569 5.746251,15.10288 4.309612,3.50257 11.341476,4.78558 16.45366,2.61615 4.241176,-1.7998 6.595513,-6.91359 7.923178,-11.32541 1.037349,-3.4471 1.652818,-7.75819 -0.278876,-10.795812 -1.223184,-1.923475 -3.057713,-3.58151 -5.169466,-4.803511 z m 0.943388,4.280489 c 0.875311,0.474662 1.64896,1.082686 2.263024,1.844674 1.96516,2.43855 1.500397,6.42652 0.469354,9.38377 -1.275553,3.65856 -3.957187,7.63217 -7.672444,8.73167 -4.266343,1.2626 -9.843861,-0.33545 -12.848253,-3.61711 -2.493467,-2.72358 -3.539165,-7.50654 -2.051452,-10.88619 1.701492,-3.86529 6.588092,-6.06583 10.766673,-6.678226 2.904832,-0.42572 6.447163,-0.202582 9.073098,1.221412 z"
         style="opacity:1;vector-effect:none;fill:#000000;fill-opacity:1;stroke:none;stroke-width:0.90674961;stroke-linecap:butt;stroke-linejoin:miter;stroke-miterlimit:4;stroke-dasharray:none;stroke-dashoffset:0;stroke-opacity:1" />
    </g>
    <g
       id="g4627"
       transform="matrix(1.1671726,0,0,1.1671726,-193.45525,105.115)"
       style="stroke-width:0.85677135">
      <path
         inkscape:connector-curvature="0"
         id="path4509"
         d="m 101.86458,93.8 20.10834,2.910417 13.75833,5.820833 9.26041,9.78958 3.70417,12.43542 -2.11667,9.26042 -11.64166,6.35 -22.48958,2.91041 -24.341671,-3.70416 -19.05,-8.99584 -8.202083,-15.875 10.583333,-13.49375 18.25625,-5.82083 z"
         style="opacity:1;vector-effect:none;fill:#de87aa;fill-opacity:1;stroke:#000000;stroke-width:0.90674961;stroke-linecap:butt;stroke-linejoin:miter;stroke-miterlimit:4;stroke-dasharray:none;stroke-dashoffset:0;stroke-opacity:1" />
      <path
         sodipodi:nodetypes="caacccccc"
         inkscape:connector-curvature="0"
         id="path4544"
         d="m 93.927082,95.3875 c 0,0 -12.1936,6.46173 -14.022916,12.43542 -2.079433,6.79045 1.023296,14.96165 5.291666,20.6375 5.536471,7.3621 23.812498,14.02291 23.812498,14.02291 L 86.518749,139.8375 63.764583,124.22708 62.177083,110.20417 76.729166,98.827083 Z"
         style="opacity:1;vector-effect:none;fill:#a96bd7;fill-opacity:1;stroke:none;stroke-width:0.90674961;stroke-linecap:butt;stroke-linejoin:miter;stroke-miterlimit:4;stroke-dasharray:none;stroke-dashoffset:0;stroke-opacity:1" />
      <path
         id="path4504"
         d="m 103.72597,91.818168 c -1.85741,-0.01887 -3.71516,0.02655 -5.565555,0.129706 -4.807016,0.267978 -9.624311,0.919216 -14.287499,2.116667 -3.18938,0.818997 -6.439914,1.740271 -9.260417,3.439583 -5.671272,3.416866 -12.428106,7.053966 -14.816666,13.229166 -1.535449,3.96963 -0.528744,8.86765 1.322916,12.7 2.469047,5.11015 7.173561,9.21607 12.170833,11.90625 12.474766,6.71553 27.374608,9.26312 41.539588,8.99583 10.65065,-0.20098 22.99917,-0.85499 30.95624,-7.9375 2.75274,-2.45016 3.90895,-6.63402 3.96875,-10.31875 0.10449,-6.44218 -2.47733,-13.10698 -6.35,-18.25625 -4.22124,-5.61276 -10.80177,-9.270591 -17.19791,-12.170829 -4.13019,-1.872774 -8.73587,-2.561844 -13.22917,-3.175 -3.06041,-0.417621 -6.15543,-0.627446 -9.25111,-0.658873 z m -3.855582,4.897892 c 2.264182,-0.0065 4.523362,0.08521 6.756692,0.258898 9.10776,0.708316 18.52326,2.617451 26.45833,7.143752 4.3881,2.50303 8.34236,6.19668 10.84792,10.58333 2.20671,3.86343 3.99018,8.59066 3.175,12.96458 -0.64998,3.48751 -3.16775,6.71321 -6.08542,8.73125 -5.61193,3.88159 -13.03019,4.65816 -19.84374,5.02709 -12.62873,0.68381 -25.846378,-0.54939 -37.570838,-5.29167 -6.672307,-2.6988 -13.649467,-6.59558 -17.4625,-12.7 -1.613138,-2.58253 -2.025927,-5.98262 -1.587499,-8.99583 0.369138,-2.537 1.728025,-4.97045 3.439583,-6.87917 3.152108,-3.51521 7.455783,-6.09626 11.90625,-7.672916 6.334474,-2.244098 13.173675,-3.14974 19.966222,-3.169314 z"
         style="opacity:1;vector-effect:none;fill:#000000;fill-opacity:1;stroke:none;stroke-width:0.90674961;stroke-linecap:butt;stroke-linejoin:miter;stroke-miterlimit:4;stroke-dasharray:none;stroke-dashoffset:0;stroke-opacity:1"
         inkscape:connector-curvature="0" />
    </g>
    <g
       id="g4517"
       transform="matrix(1.1671726,0,0,1.1671726,-196.54339,102.64449)"
       style="stroke-width:0.85677135">
      <path
         sodipodi:nodetypes="czzzzzcac"
         inkscape:connector-curvature="0"
         id="path4513"
         d="m 106.62708,115.23125 c 0,0 -7.235508,-16.49196 -7.408331,-22.489583 -0.172823,-5.997623 1.205411,-9.36045 3.175001,-11.90625 1.96959,-2.5458 3.61244,-3.507437 6.08542,-3.439583 2.47298,0.06785 4.62936,1.427089 6.61458,4.233333 1.98522,2.806244 2.56043,6.904138 2.91042,12.435416 0.34999,5.531278 -2.11667,20.372917 -2.11667,20.372917 0,0 -3.57443,2.0959 -5.55625,2.11667 -1.31103,0.0137 -3.70417,-1.32292 -3.70417,-1.32292 z"
         style="opacity:1;vector-effect:none;fill:#de87aa;fill-opacity:1;stroke:none;stroke-width:0.90674961;stroke-linecap:butt;stroke-linejoin:miter;stroke-miterlimit:4;stroke-dasharray:none;stroke-dashoffset:0;stroke-opacity:1" />
      <path
         style="opacity:1;vector-effect:none;fill:#a96bd7;fill-opacity:1;stroke:none;stroke-width:0.90674961;stroke-linecap:butt;stroke-linejoin:miter;stroke-miterlimit:4;stroke-dasharray:none;stroke-dashoffset:0;stroke-opacity:1"
         d="m 106.62708,77.660417 c 0,0 -2.15602,7.163963 -2.11667,10.847917 0.0887,8.302929 5.29167,24.341666 5.29167,24.341666 l -2.38125,3.175 -6.87917,-21.43125 0.52917,-13.229166 z"
         id="path4546"
         inkscape:connector-curvature="0"
         sodipodi:nodetypes="caccccc" />
      <path
         sodipodi:nodetypes="caaaaaccaaaaacc"
         inkscape:connector-curvature="0"
         id="path4511"
         d="m 105.56875,116.28958 c 0,0 -5.12475,-10.10878 -6.085413,-15.61041 -1.16851,-6.692011 -2.96704,-14.548402 0.529163,-20.37292 1.56513,-2.607436 4.904,-4.712934 7.9375,-4.497916 3.8888,0.275643 7.35828,3.740725 9.26042,7.14375 2.85597,5.109467 1.92011,11.609412 1.85208,17.462496 -0.0558,4.80202 -1.85208,14.2875 -1.85208,14.2875 h -2.64583 c 0,0 1.34823,-10.21164 1.32291,-15.34583 -0.0227,-4.607207 0.72846,-9.632954 -1.32291,-13.758333 -1.33397,-2.682658 -3.63283,-5.793461 -6.61459,-6.085417 -1.85161,-0.181298 -3.87605,1.274714 -4.7625,2.910417 -2.90073,5.352492 -0.41693,12.242242 0.52917,18.256253 0.78507,4.9904 4.23333,14.55208 4.23333,14.55208 z"
         style="opacity:1;vector-effect:none;fill:#000000;fill-opacity:1;stroke:none;stroke-width:0.90674961;stroke-linecap:butt;stroke-linejoin:miter;stroke-miterlimit:4;stroke-dasharray:none;stroke-dashoffset:0;stroke-opacity:1" />
    </g>
    <path
       style="opacity:1;vector-effect:none;fill:#de87aa;fill-opacity:1;stroke:none;stroke-width:1.05833328;stroke-linecap:butt;stroke-linejoin:miter;stroke-miterlimit:4;stroke-dasharray:none;stroke-dashoffset:0;stroke-opacity:1"
       d="m -42.967772,230.96296 c 0,0 -6.976099,-19.24896 -7.142724,-26.24923 -0.166626,-7.00026 1.1622,-10.92526 3.061164,-13.89665 1.89898,-2.97139 3.48293,-4.09377 5.86724,-4.01458 2.38432,0.0793 4.46337,1.66566 6.37742,4.94103 1.91405,3.27537 2.46863,8.05832 2.80607,14.51428 0.33744,6.45596 -2.04078,23.77871 -2.04078,23.77871 0,0 -3.44627,2.44628 -5.35704,2.47052 -1.26402,0.016 -3.57135,-1.54408 -3.57135,-1.54408 z"
       id="path4519"
       inkscape:connector-curvature="0"
       sodipodi:nodetypes="czzzzzcac" />
    <path
       style="opacity:1;vector-effect:none;fill:#a96bd7;fill-opacity:1;stroke:none;stroke-width:1.05833328;stroke-linecap:butt;stroke-linejoin:miter;stroke-miterlimit:4;stroke-dasharray:none;stroke-dashoffset:0;stroke-opacity:1"
       d="m -43.256742,186.8025 c 0,0 -2.22886,8.36158 -2.18817,12.66139 0.0917,9.69096 5.47044,28.41093 5.47044,28.41093 l -2.4617,3.70578 -7.11156,-25.01398 0.547042,-15.44072 z"
       id="path4546-7"
       inkscape:connector-curvature="0"
       sodipodi:nodetypes="caccccc" />
    <path
       style="opacity:1;vector-effect:none;fill:#000000;fill-opacity:1;stroke:none;stroke-width:1.05833328;stroke-linecap:butt;stroke-linejoin:miter;stroke-miterlimit:4;stroke-dasharray:none;stroke-dashoffset:0;stroke-opacity:1"
       d="m -43.988162,232.19822 c 0,0 -4.941004,-11.79869 -5.867225,-18.22004 -1.126614,-7.81075 -2.860659,-16.98051 0.510183,-23.77872 1.509014,-3.04333 4.728182,-5.50081 7.652922,-5.24985 3.74937,0.32172 7.09444,4.36607 8.92839,8.33799 2.75357,5.96363 1.85126,13.55019 1.78568,20.38175 -0.0538,5.60479 -1.78568,16.67598 -1.78568,16.67598 h -2.55096 c 0,0 1.29989,-11.91875 1.27547,-17.91123 -0.0219,-5.37741 0.70235,-11.24333 -1.27547,-16.05836 -1.28615,-3.13113 -3.50258,-6.76197 -6.37743,-7.10272 -1.78523,-0.21161 -3.73708,1.4878 -4.59175,3.39695 -2.796726,6.24728 -0.40199,14.28881 0.51019,21.30821 0.75692,5.82465 4.08156,16.98478 4.08156,16.98478 z"
       id="path4521"
       inkscape:connector-curvature="0"
       sodipodi:nodetypes="caaaaaccaaaaacc" />
    <g
       id="g4622"
       transform="matrix(1.1671726,0,0,1.1671726,-193.45525,105.115)"
       style="stroke-width:0.85677135">
      <ellipse
         ry="6.0854168"
         rx="2.778125"
         cy="122.90417"
         cx="121.84062"
         id="path4527"
         style="opacity:1;vector-effect:none;fill:#000000;fill-opacity:1;stroke:none;stroke-width:0.91400367;stroke-linecap:butt;stroke-linejoin:miter;stroke-miterlimit:4;stroke-dasharray:none;stroke-dashoffset:0;stroke-opacity:1" />
      <path
         sodipodi:nodetypes="caaccaacc"
         inkscape:connector-curvature="0"
         id="path4529"
         d="m 127.10375,119.72896 c 0,0 0.15013,-3.67223 -0.94957,-4.93659 -1.39991,-1.60951 -3.92581,-2.1812 -6.05596,-2.06831 -1.81563,0.0962 -4.94652,2.29866 -4.94652,2.29866 l 1.1293,1.66881 c 0,0 2.39964,-1.46806 3.74738,-1.52913 1.69471,-0.0768 3.77555,0.18982 4.86674,1.48876 0.85282,1.01519 0.48984,3.94729 0.48984,3.94729 z"
         style="opacity:1;vector-effect:none;fill:#000000;fill-opacity:1;stroke:none;stroke-width:0.90674961;stroke-linecap:butt;stroke-linejoin:miter;stroke-miterlimit:4;stroke-dasharray:none;stroke-dashoffset:0;stroke-opacity:1" />
      <ellipse
         style="opacity:1;vector-effect:none;fill:#000000;fill-opacity:1;stroke:none;stroke-width:0.91400367;stroke-linecap:butt;stroke-linejoin:miter;stroke-miterlimit:4;stroke-dasharray:none;stroke-dashoffset:0;stroke-opacity:1"
         id="ellipse4531"
         cx="136.39272"
         cy="118.93542"
         rx="2.778125"
         ry="6.0854168" />
      <path
         style="opacity:1;vector-effect:none;fill:#000000;fill-opacity:1;stroke:none;stroke-width:0.90674961;stroke-linecap:butt;stroke-linejoin:miter;stroke-miterlimit:4;stroke-dasharray:none;stroke-dashoffset:0;stroke-opacity:1"
         d="m 141.65583,115.76021 c 0,0 0.15013,-3.67223 -0.94957,-4.93659 -1.39991,-1.60951 -3.92581,-2.1812 -6.05596,-2.06831 -1.81563,0.0962 -4.94652,2.29866 -4.94652,2.29866 l 1.1293,1.66881 c 0,0 2.39964,-1.46806 3.74738,-1.52913 1.69471,-0.0768 3.77555,0.18982 4.86674,1.48876 0.85282,1.01519 0.48984,3.94729 0.48984,3.94729 z"
         id="path4533"
         inkscape:connector-curvature="0"
         sodipodi:nodetypes="caaccaacc" />
      <path
         sodipodi:nodetypes="caaaccaaacc"
         inkscape:connector-curvature="0"
         id="path4535"
         d="m 130.96875,127.40208 c 0,0 3.25353,-1.66464 4.7625,-1.05833 1.77037,0.71135 3.175,2.85456 3.175,4.7625 0,1.90794 -1.39932,4.06452 -3.175,4.7625 -1.77188,0.69649 -5.55625,-1.32292 -5.55625,-1.32292 l 0.52917,-1.85208 c 0,0 2.50486,1.189 3.70416,0.79375 0.94952,-0.31293 1.91696,-1.25148 1.98438,-2.24896 0.0751,-1.11043 -0.82691,-2.34488 -1.85209,-2.77813 -1.11536,-0.47136 -3.57187,0.66146 -3.57187,0.66146 z"
         style="opacity:1;vector-effect:none;fill:#000000;fill-opacity:1;stroke:none;stroke-width:0.90674961;stroke-linecap:butt;stroke-linejoin:miter;stroke-miterlimit:4;stroke-dasharray:none;stroke-dashoffset:0;stroke-opacity:1" />
    </g>
    <path
       style="opacity:1;vector-effect:none;fill:#ac5a36;fill-opacity:1;stroke:#000000;stroke-width:2.11666656;stroke-linecap:butt;stroke-linejoin:miter;stroke-miterlimit:4;stroke-dasharray:none;stroke-dashoffset:0;stroke-opacity:1"
       d="m 221.86001,195.66456 5.02709,-21.16666 62.97083,16.66874 -20.6375,19.57917 z"
       id="path5197"
       inkscape:connector-curvature="0"
       sodipodi:nodetypes="ccccc" />
    <path
       style="opacity:1;vector-effect:none;fill:#ac5a36;fill-opacity:1;stroke:none;stroke-width:2.11666656;stroke-linecap:butt;stroke-linejoin:miter;stroke-miterlimit:4;stroke-dasharray:none;stroke-dashoffset:0;stroke-opacity:1"
       d="m 188.7871,215.11143 -16.66875,-25.2677 72.49583,25.92917 -5.82083,16.40416"
       id="path5201"
       inkscape:connector-curvature="0"
       sodipodi:nodetypes="cccc" />
    <path
       style="opacity:1;vector-effect:none;fill:none;fill-opacity:1;stroke:#000000;stroke-width:2.11666656;stroke-linecap:butt;stroke-linejoin:miter;stroke-miterlimit:4;stroke-dasharray:none;stroke-dashoffset:0;stroke-opacity:1"
       d="m 237.73501,284.56456 1.05834,-52.3875"
       id="path5205"
       inkscape:connector-curvature="0" />
    <path
       sodipodi:nodetypes="cccc"
       inkscape:connector-curvature="0"
       id="path5223"
       d="m 196.46001,265.51456 -8.73125,-52.12292 -15.61041,-23.54791 72.49583,25.92917 -5.82083,16.40416 -1.05834,52.3875"
       style="opacity:1;vector-effect:none;fill:none;fill-opacity:1;stroke:#000000;stroke-width:2.11666656;stroke-linecap:butt;stroke-linejoin:miter;stroke-miterlimit:4;stroke-dasharray:none;stroke-dashoffset:0;stroke-opacity:1" />
    <path
       style="opacity:1;vector-effect:none;fill:none;fill-opacity:1;stroke:#000000;stroke-width:1.05833328;stroke-linecap:butt;stroke-linejoin:miter;stroke-miterlimit:4;stroke-dasharray:none;stroke-dashoffset:0;stroke-opacity:1"
       d="m 187.72876,213.39164 51.06459,18.78542"
       id="path5225"
       inkscape:connector-curvature="0" />
    <path
       style="opacity:1;vector-effect:none;fill:#000000;fill-opacity:1;stroke:none;stroke-width:1.05833328;stroke-linecap:butt;stroke-linejoin:miter;stroke-miterlimit:4;stroke-dasharray:none;stroke-dashoffset:0;stroke-opacity:1"
       d="m 242.654,240.68628 4.49013,14.40583 5.79975,-3.55468 0.37417,-18.70887 z"
       id="path5229"
       inkscape:connector-curvature="0"
       sodipodi:nodetypes="ccccc" />
    <path
       sodipodi:nodetypes="ccccc"
       inkscape:connector-curvature="0"
       id="path5231"
       d="m 256.12438,233.38983 3.30852,14.40583 3.89932,-2.05797 0.83698,-18.52178 z"
       style="opacity:1;vector-effect:none;fill:#000000;fill-opacity:1;stroke:none;stroke-width:1.05833328;stroke-linecap:butt;stroke-linejoin:miter;stroke-miterlimit:4;stroke-dasharray:none;stroke-dashoffset:0;stroke-opacity:1" />
    <path
       style="opacity:1;vector-effect:none;fill:#000000;fill-opacity:1;stroke:none;stroke-width:1.05833328;stroke-linecap:butt;stroke-linejoin:miter;stroke-miterlimit:4;stroke-dasharray:none;stroke-dashoffset:0;stroke-opacity:1"
       d="m 256.12439,246.67312 5.42556,8.60608 -6.92228,5.61266 2.61925,-5.61266 z"
       id="path5233"
       inkscape:connector-curvature="0" />
    <path
       style="opacity:1;vector-effect:none;fill:#000000;fill-opacity:1;stroke:none;stroke-width:1.05833328;stroke-linecap:butt;stroke-linejoin:miter;stroke-miterlimit:4;stroke-dasharray:none;stroke-dashoffset:0;stroke-opacity:1"
       d="m 236.20034,228.13175 12.79587,6.07439 3.04853,-5.62664 -14.63739,-4.77665 z"
       id="path5235"
       inkscape:connector-curvature="0" />
    <path
       inkscape:connector-curvature="0"
       id="path5237"
       d="m 266.26753,220.54008 -7.19923,10.13335 -4.75031,-2.99015 9.16723,-9.93237 z"
       style="opacity:1;vector-effect:none;fill:#000000;fill-opacity:1;stroke:none;stroke-width:1.05833328;stroke-linecap:butt;stroke-linejoin:miter;stroke-miterlimit:4;stroke-dasharray:none;stroke-dashoffset:0;stroke-opacity:1" />
    <ellipse
       style="opacity:1;vector-effect:none;fill:#ffffff;fill-opacity:1;stroke:none;stroke-width:2.11666656;stroke-linecap:butt;stroke-linejoin:miter;stroke-miterlimit:4;stroke-dasharray:none;stroke-dashoffset:0;stroke-opacity:1"
       id="path5239"
       cx="248.78136"
       cy="244.61247"
       rx="1.7859374"
       ry="3.5718749" />
    <ellipse
       ry="3.5718749"
       rx="1.1244791"
       cy="238.92393"
       cx="260.95221"
       id="ellipse5241"
       style="opacity:1;vector-effect:none;fill:#ffffff;fill-opacity:1;stroke:none;stroke-width:2.11666656;stroke-linecap:butt;stroke-linejoin:miter;stroke-miterlimit:4;stroke-dasharray:none;stroke-dashoffset:0;stroke-opacity:1" />
    <g
       id="g5437">
      <g
         transform="translate(18.468593,-10.46367)"
         id="g5372">
        <path
           id="path5366"
           d="m 54.817779,267.31105 c -5.336176,1.24935 -11.23173,5.71933 -11.896985,11.07323 -0.350922,2.82418 2.352134,5.56199 4.750524,7.0939 6.928914,4.42571 16.22083,4.96215 24.365003,3.83559 3.548289,-0.49082 8.119265,-1.30749 9.763572,-4.48987 1.350743,-2.6142 0.276025,-6.4353 -1.631866,-8.67551 -5.70544,-6.69925 -16.201094,-10.64327 -24.835888,-8.94848 -0.170706,0.0338 -0.342207,0.0709 -0.51434,0.11122 z m 2.665983,4.08377 c 0.118813,-0.0251 -3.682766,0.7792 -5e-6,-2e-5 z"
           style="opacity:1;vector-effect:none;fill:#9967a5;fill-opacity:1;stroke:none;stroke-width:1.05833328;stroke-linecap:butt;stroke-linejoin:miter;stroke-miterlimit:4;stroke-dasharray:none;stroke-dashoffset:0;stroke-opacity:1"
           inkscape:connector-curvature="0"
           sodipodi:nodetypes="cscssscccccc" />
        <path
           style="opacity:1;vector-effect:none;fill:#6f5088;fill-opacity:1;stroke:none;stroke-width:1.05833328;stroke-linecap:butt;stroke-linejoin:miter;stroke-miterlimit:4;stroke-dasharray:none;stroke-dashoffset:0;stroke-opacity:1"
           d="m 59.120018,269.49794 c 0,0 -2.989558,3.59643 -3.367595,5.79975 -0.740469,4.31568 2.432153,12.90912 2.432153,12.90912 l -10.102789,-3.74177 -3.741772,-8.04482 8.231902,-6.73519 z"
           id="path5368"
           inkscape:connector-curvature="0"
           sodipodi:nodetypes="caccccc" />
        <path
           style="opacity:1;vector-effect:none;fill:#000000;fill-opacity:1;stroke:none;stroke-width:1.05833328;stroke-linecap:butt;stroke-linejoin:miter;stroke-miterlimit:4;stroke-dasharray:none;stroke-dashoffset:0;stroke-opacity:1"
           d="m 54.050541,266.14288 c -5.885138,1.37785 -12.387189,6.3077 -13.120884,12.21239 -0.387023,3.11471 2.59411,6.13417 5.239235,7.82369 7.641724,4.881 17.889541,5.47262 26.871544,4.23016 3.913318,-0.54131 8.954531,-1.44199 10.767996,-4.95176 1.4897,-2.88314 0.304421,-7.09733 -1.799742,-9.568 -6.292387,-7.38844 -17.867778,-11.7382 -27.390874,-9.86905 -0.188345,0.037 -0.377432,0.0781 -0.567275,0.12257 z m 2.940246,4.50388 c 0.131019,-0.0277 0.261842,-0.0533 0.39232,-0.0763 7.890874,-1.38715 18.081201,1.32818 22.711967,7.86623 1.110398,1.56774 1.078091,4.19242 -0.02793,5.76324 -1.736748,2.46664 -5.495626,2.88955 -8.505516,3.0923 -7.76603,0.52315 -17.031657,0.24356 -22.817065,-4.96355 -0.977817,-0.88007 -1.608694,-2.48426 -1.238792,-3.74674 1.154751,-3.94113 5.423382,-7.07585 9.485012,-7.93521 z"
           id="path5370"
           inkscape:connector-curvature="0" />
      </g>
      <g
         style="stroke-width:1.1424849"
         transform="matrix(0.87528512,0,0,0.87528512,-60.786725,38.395955)"
         id="g5287">
        <path
           style="opacity:1;vector-effect:none;fill:#abc837;fill-opacity:1;stroke:none;stroke-width:1.20912969;stroke-linecap:butt;stroke-linejoin:miter;stroke-miterlimit:4;stroke-dasharray:none;stroke-dashoffset:0;stroke-opacity:1"
           d="m 126.84612,192.04323 c -7.60523,6.57564 -13.47039,37.79191 -13.47039,37.79191 l 0.37418,23.76027 14.96709,13.0962 21.32811,2.80633 16.4638,-8.04481 6.92229,-26.00533 c 0,0 -2.2865,-33.35253 -8.98026,-40.97242 -6.69376,-7.61989 -10.54622,-10.0305 -17.04707,-10.51097 -6.50085,-0.48046 -12.95252,1.50318 -20.55775,8.07882 z"
           id="path5280"
           inkscape:connector-curvature="0"
           sodipodi:nodetypes="zcccccczzz" />
        <path
           style="opacity:1;vector-effect:none;fill:#9cb030;fill-opacity:1;stroke:none;stroke-width:1.20912969;stroke-linecap:butt;stroke-linejoin:miter;stroke-miterlimit:4;stroke-dasharray:none;stroke-dashoffset:0;stroke-opacity:1"
           d="m 127.22029,190.54652 c 0,0 2.62596,-3.14359 4.49013,-3.55468 1.56573,-0.34528 3.48981,0.0451 4.67722,1.12253 5.37493,4.87694 7.48663,13.33185 7.10937,20.57975 -0.53659,10.30894 -14.29091,17.80978 -13.09621,28.06331 0.91979,7.89413 12.27679,11.16583 14.78,18.70886 1.41479,4.26323 -0.37417,13.47038 -0.37417,13.47038 l -19.45722,-4.8643 -12.16077,-19.27013 9.16735,-38.72736 z"
           id="path5282"
           inkscape:connector-curvature="0"
           sodipodi:nodetypes="caaaaaccccc" />
        <path
           style="opacity:1;vector-effect:none;fill:#000000;fill-opacity:1;stroke:none;stroke-width:1.20912969;stroke-linecap:butt;stroke-linejoin:miter;stroke-miterlimit:4;stroke-dasharray:none;stroke-dashoffset:0;stroke-opacity:1"
           d="m 121.04637,192.97868 c -8.90453,9.81898 -10.51815,24.78452 -11.78659,37.979 -0.93054,9.67959 -2.41615,21.04652 3.18051,28.99874 4.75148,6.75132 14.11195,9.54406 22.26355,10.85114 9.57051,1.53459 21.32854,2.23171 28.81165,-3.92886 8.64809,-7.11965 10.03773,-20.63291 10.85115,-31.80507 1.01787,-13.98036 0.55863,-29.9991 -7.67064,-41.3466 -0.91749,-1.26514 -2.56136,-2.40508 -4.11595,-2.24506 -1.62835,0.16761 -3.25154,1.61868 -3.74177,3.1805 -4.17221,13.29209 11.51682,26.50577 10.66405,40.41116 -0.59615,9.72093 -3.04214,21.30794 -10.85114,27.12785 -6.07535,4.52785 -15.27367,3.84179 -22.63773,2.05798 -6.10359,-1.47848 -12.85709,-4.61053 -15.90254,-10.10279 -3.90134,-7.0358 -1.50626,-16.19828 -0.18709,-24.13444 1.88548,-11.343 11.78423,-21.0608 11.41241,-32.55343 -0.0876,-2.70903 -0.66866,-6.4651 -3.1805,-7.48354 -2.38287,-0.96615 -5.38205,1.08872 -7.10937,2.99342 z"
           id="path5278"
           inkscape:connector-curvature="0"
           sodipodi:nodetypes="aaaaaaaaaaaaaaaaa" />
      </g>
      <g
         style="stroke-width:1.1424849"
         transform="matrix(0.87528512,0,0,0.87528512,12.084662,37.577175)"
         id="g5334">
        <path
           style="opacity:1;vector-effect:none;fill:#abc837;fill-opacity:1;stroke:none;stroke-width:1.20912969;stroke-linecap:butt;stroke-linejoin:miter;stroke-miterlimit:4;stroke-dasharray:none;stroke-dashoffset:0;stroke-opacity:1"
           d="m 32.553428,186.99184 c -3.469047,-3.93957 -7.148025,-9.21593 -6.361015,-14.40583 0.868139,-5.7249 6.66539,-9.78049 11.412408,-13.09621 6.295148,-4.39707 13.889,-7.33512 21.515197,-8.2319 6.622245,-0.77872 13.528756,0.44272 19.831399,2.61924 6.025295,2.08074 12.229163,4.96401 16.463804,9.72862 3.895165,4.38264 6.365199,10.2736 7.109369,16.08962 1.08261,8.46107 2.58995,19.9851 -4.11595,25.25697 -10.866892,8.54305 -28.181377,1.03256 -41.346596,-3.18051 -9.086176,-2.90771 -18.203883,-7.62013 -24.508616,-14.78 z"
           id="path5274"
           inkscape:connector-curvature="0"
           sodipodi:nodetypes="aaaaaaaaaa" />
        <path
           style="opacity:1;vector-effect:none;fill:#9cb030;fill-opacity:1;stroke:none;stroke-width:1.20912969;stroke-linecap:butt;stroke-linejoin:miter;stroke-miterlimit:4;stroke-dasharray:none;stroke-dashoffset:0;stroke-opacity:1"
           d="m 40.78533,160.05107 c 0,0 -2.277184,12.03057 0.187089,17.21216 3.727692,7.83816 12.86992,11.72845 20.018486,16.65089 3.276742,2.25634 10.403454,5.84987 10.403454,5.84987 l -1.875089,7.07922 c 0,0 -3.802264,6.62366 -10.054167,5.75468 C 53.2132,211.72891 46.557219,199.45458 41.076562,193.81248 35.595905,188.17038 26.56659,178.75994 26.56659,178.75994 L 29.747099,166.225 Z"
           id="path5276"
           inkscape:connector-curvature="0"
           sodipodi:nodetypes="caacczzccc" />
        <g
           style="stroke-width:1.04220116"
           transform="matrix(1.0754875,0,0,1.1173582,14.62647,-28.82946)"
           id="g5270">
          <path
             sodipodi:nodetypes="acccccccccaaa"
             inkscape:connector-curvature="0"
             id="path5264"
             d="m 63.367708,209.15831 c -1.007247,6.29344 9.128124,16.80104 9.128124,16.80104 l -4.894791,25.66458 4.101041,11.77396 7.011459,6.74688 h 3.96875 l 2.38125,-8.20209 -7.540625,-11.64166 1.190625,-14.41979 2.910416,-10.71563 c 0,0 -0.130238,-14.07932 -4.233333,-19.18229 -1.644296,-2.04499 -4.553649,-3.7281 -7.14375,-3.30729 -3.109937,0.50527 -6.38124,3.37117 -6.879166,6.48229 z"
             style="opacity:1;vector-effect:none;fill:#abc837;fill-opacity:1;stroke:none;stroke-width:1.10299623;stroke-linecap:butt;stroke-linejoin:miter;stroke-miterlimit:4;stroke-dasharray:none;stroke-dashoffset:0;stroke-opacity:1" />
          <path
             sodipodi:nodetypes="caaaaaccccccccc"
             inkscape:connector-curvature="0"
             id="path5266"
             d="m 62.177083,205.18956 c 0,0 6.227509,3.06659 8.334374,5.68854 3.631487,4.5193 6.138495,10.35221 6.482292,16.13958 0.381867,6.42822 -5.292017,12.21903 -5.027083,18.65313 0.241027,5.8535 2.743731,11.6353 5.953125,16.53646 0.59811,0.91339 1.794054,1.32851 2.38125,2.24896 0.749985,1.17562 1.322916,3.96875 1.322916,3.96875 l -4.497916,-0.26459 -8.202084,-8.33437 -0.926041,-12.56771 3.96875,-16.40417 -1.058334,-9.92187 -6.482291,-7.80521 -2.910417,-4.10104 z"
             style="opacity:1;vector-effect:none;fill:#9cb030;fill-opacity:1;stroke:none;stroke-width:1.10299623;stroke-linecap:butt;stroke-linejoin:miter;stroke-miterlimit:4;stroke-dasharray:none;stroke-dashoffset:0;stroke-opacity:1" />
          <path
             sodipodi:nodetypes="aaaaaaaaaaaaaaaaaaaaa"
             inkscape:connector-curvature="0"
             id="path5268"
             d="m 62.441665,210.74581 c -0.180587,5.79526 6.72752,9.88994 7.672917,15.61042 1.450143,8.77463 -4.670485,17.65027 -3.439583,26.45833 0.770932,5.51662 2.678158,11.40476 6.614583,15.34583 2.512447,2.51541 6.537818,5.67059 9.789583,4.23334 2.984656,-1.31919 3.380529,-6.0037 3.175,-9.26042 -0.340344,-5.39293 -6.388612,-9.20144 -7.14375,-14.55208 -1.126623,-7.98285 4.31982,-15.75101 4.233334,-23.8125 -0.06754,-6.29551 -0.430983,-13.14271 -3.704167,-18.52084 -0.587188,-0.9648 -1.523302,-2.24139 -2.645833,-2.11666 -1.122531,0.12473 -1.877662,1.54197 -2.116667,2.64583 -1.367005,6.31361 4.512065,12.33037 4.7625,18.78542 0.30185,7.78027 -5.047494,15.30771 -3.96875,23.01875 0.732329,5.23481 6.590099,9.00963 6.879167,14.2875 0.08695,1.58757 -0.131431,3.85933 -1.5875,4.49791 -1.845339,0.80931 -4.113818,-0.97425 -5.55625,-2.38125 -3.333547,-3.25165 -5.172414,-8.08856 -5.820834,-12.7 -1.229628,-8.74488 5.168165,-17.44468 3.96875,-26.19375 -0.788133,-5.74899 -3.048321,-11.76409 -7.14375,-15.875 -0.75211,-0.75495 -1.896375,-1.65055 -2.910416,-1.32291 -0.676606,0.21861 -1.036188,1.14138 -1.058334,1.85208 z"
             style="opacity:1;vector-effect:none;fill:#000000;fill-opacity:1;stroke:none;stroke-width:1.10299623;stroke-linecap:butt;stroke-linejoin:miter;stroke-miterlimit:4;stroke-dasharray:none;stroke-dashoffset:0;stroke-opacity:1" />
        </g>
        <g
           id="g5262"
           transform="matrix(1.0754875,0,0,1,4.5236826,-5.4255713)"
           style="stroke-width:1.10166049">
          <path
             style="opacity:1;vector-effect:none;fill:#abc837;fill-opacity:1;stroke:none;stroke-width:1.16592395;stroke-linecap:butt;stroke-linejoin:miter;stroke-miterlimit:4;stroke-dasharray:none;stroke-dashoffset:0;stroke-opacity:1"
             d="m 63.367708,209.15831 c -1.007247,6.29344 9.128124,16.80104 9.128124,16.80104 l -4.894791,25.66458 4.101041,11.77396 7.011459,6.74688 h 3.96875 l 2.38125,-8.20209 -7.540625,-11.64166 1.190625,-14.41979 2.910416,-10.71563 c 0,0 -0.130238,-14.07932 -4.233333,-19.18229 -1.644296,-2.04499 -4.553649,-3.7281 -7.14375,-3.30729 -3.109937,0.50527 -6.38124,3.37117 -6.879166,6.48229 z"
             id="path5256"
             inkscape:connector-curvature="0"
             sodipodi:nodetypes="acccccccccaaa" />
          <path
             style="opacity:1;vector-effect:none;fill:#9cb030;fill-opacity:1;stroke:none;stroke-width:1.16592395;stroke-linecap:butt;stroke-linejoin:miter;stroke-miterlimit:4;stroke-dasharray:none;stroke-dashoffset:0;stroke-opacity:1"
             d="m 62.177083,205.18956 c 0,0 6.227509,3.06659 8.334374,5.68854 3.631487,4.5193 6.138495,10.35221 6.482292,16.13958 0.381867,6.42822 -5.292017,12.21903 -5.027083,18.65313 0.241027,5.8535 2.743731,11.6353 5.953125,16.53646 0.59811,0.91339 1.794054,1.32851 2.38125,2.24896 0.749985,1.17562 1.322916,3.96875 1.322916,3.96875 l -4.497916,-0.26459 -8.202084,-8.33437 -0.926041,-12.56771 3.96875,-16.40417 -1.058334,-9.92187 -6.482291,-7.80521 -2.910417,-4.10104 z"
             id="path5258"
             inkscape:connector-curvature="0"
             sodipodi:nodetypes="caaaaaccccccccc" />
          <path
             style="opacity:1;vector-effect:none;fill:#000000;fill-opacity:1;stroke:none;stroke-width:1.16592395;stroke-linecap:butt;stroke-linejoin:miter;stroke-miterlimit:4;stroke-dasharray:none;stroke-dashoffset:0;stroke-opacity:1"
             d="m 62.441665,210.74581 c -0.180587,5.79526 6.72752,9.88994 7.672917,15.61042 1.450143,8.77463 -4.670485,17.65027 -3.439583,26.45833 0.770932,5.51662 2.678158,11.40476 6.614583,15.34583 2.512447,2.51541 6.537818,5.67059 9.789583,4.23334 2.984656,-1.31919 3.380529,-6.0037 3.175,-9.26042 -0.340344,-5.39293 -6.388612,-9.20144 -7.14375,-14.55208 -1.126623,-7.98285 4.31982,-15.75101 4.233334,-23.8125 -0.06754,-6.29551 -0.430983,-13.14271 -3.704167,-18.52084 -0.587188,-0.9648 -1.523302,-2.24139 -2.645833,-2.11666 -1.122531,0.12473 -1.877662,1.54197 -2.116667,2.64583 -1.367005,6.31361 4.512065,12.33037 4.7625,18.78542 0.30185,7.78027 -5.047494,15.30771 -3.96875,23.01875 0.732329,5.23481 6.590099,9.00963 6.879167,14.2875 0.08695,1.58757 -0.131431,3.85933 -1.5875,4.49791 -1.845339,0.80931 -4.113818,-0.97425 -5.55625,-2.38125 -3.333547,-3.25165 -5.172414,-8.08856 -5.820834,-12.7 -1.229628,-8.74488 5.168165,-17.44468 3.96875,-26.19375 -0.788133,-5.74899 -3.048321,-11.76409 -7.14375,-15.875 -0.75211,-0.75495 -1.896375,-1.65055 -2.910416,-1.32291 -0.676606,0.21861 -1.036188,1.14138 -1.058334,1.85208 z"
             id="path5260"
             inkscape:connector-curvature="0"
             sodipodi:nodetypes="aaaaaaaaaaaaaaaaaaaaa" />
        </g>
        <g
           style="stroke-width:1.1424849"
           id="g5254">
          <path
             sodipodi:nodetypes="acccccccccaaa"
             inkscape:connector-curvature="0"
             id="path5247"
             d="m 63.367708,209.15831 c -1.007247,6.29344 9.128124,16.80104 9.128124,16.80104 l -4.894791,25.66458 4.101041,11.77396 7.011459,6.74688 h 3.96875 l 2.38125,-8.20209 -7.540625,-11.64166 1.190625,-14.41979 2.910416,-10.71563 c 0,0 -0.130238,-14.07932 -4.233333,-19.18229 -1.644296,-2.04499 -4.553649,-3.7281 -7.14375,-3.30729 -3.109937,0.50527 -6.38124,3.37117 -6.879166,6.48229 z"
             style="opacity:1;vector-effect:none;fill:#abc837;fill-opacity:1;stroke:none;stroke-width:1.20912969;stroke-linecap:butt;stroke-linejoin:miter;stroke-miterlimit:4;stroke-dasharray:none;stroke-dashoffset:0;stroke-opacity:1" />
          <path
             sodipodi:nodetypes="caaaaaccccccccc"
             inkscape:connector-curvature="0"
             id="path5249"
             d="m 62.177083,205.18956 c 0,0 6.227509,3.06659 8.334374,5.68854 3.631487,4.5193 6.138495,10.35221 6.482292,16.13958 0.381867,6.42822 -5.292017,12.21903 -5.027083,18.65313 0.241027,5.8535 2.743731,11.6353 5.953125,16.53646 0.59811,0.91339 1.794054,1.32851 2.38125,2.24896 0.749985,1.17562 1.322916,3.96875 1.322916,3.96875 l -4.497916,-0.26459 -8.202084,-8.33437 -0.926041,-12.56771 3.96875,-16.40417 -1.058334,-9.92187 -6.482291,-7.80521 -2.910417,-4.10104 z"
             style="opacity:1;vector-effect:none;fill:#9cb030;fill-opacity:1;stroke:none;stroke-width:1.20912969;stroke-linecap:butt;stroke-linejoin:miter;stroke-miterlimit:4;stroke-dasharray:none;stroke-dashoffset:0;stroke-opacity:1" />
          <path
             sodipodi:nodetypes="aaaaaaaaaaaaaaaaaaaaa"
             inkscape:connector-curvature="0"
             id="path5245"
             d="m 62.441665,210.74581 c -0.180587,5.79526 6.72752,9.88994 7.672917,15.61042 1.450143,8.77463 -4.670485,17.65027 -3.439583,26.45833 0.770932,5.51662 2.678158,11.40476 6.614583,15.34583 2.512447,2.51541 6.537818,5.67059 9.789583,4.23334 2.984656,-1.31919 3.380529,-6.0037 3.175,-9.26042 -0.340344,-5.39293 -6.388612,-9.20144 -7.14375,-14.55208 -1.126623,-7.98285 4.31982,-15.75101 4.233334,-23.8125 -0.06754,-6.29551 -0.430983,-13.14271 -3.704167,-18.52084 -0.587188,-0.9648 -1.523302,-2.24139 -2.645833,-2.11666 -1.122531,0.12473 -1.877662,1.54197 -2.116667,2.64583 -1.367005,6.31361 4.512065,12.33037 4.7625,18.78542 0.30185,7.78027 -5.047494,15.30771 -3.96875,23.01875 0.732329,5.23481 6.590099,9.00963 6.879167,14.2875 0.08695,1.58757 -0.131431,3.85933 -1.5875,4.49791 -1.845339,0.80931 -4.113818,-0.97425 -5.55625,-2.38125 -3.333547,-3.25165 -5.172414,-8.08856 -5.820834,-12.7 -1.229628,-8.74488 5.168165,-17.44468 3.96875,-26.19375 -0.788133,-5.74899 -3.048321,-11.76409 -7.14375,-15.875 -0.75211,-0.75495 -1.896375,-1.65055 -2.910416,-1.32291 -0.676606,0.21861 -1.036188,1.14138 -1.058334,1.85208 z"
             style="opacity:1;vector-effect:none;fill:#000000;fill-opacity:1;stroke:none;stroke-width:1.20912969;stroke-linecap:butt;stroke-linejoin:miter;stroke-miterlimit:4;stroke-dasharray:none;stroke-dashoffset:0;stroke-opacity:1" />
        </g>
        <path
           style="opacity:1;vector-effect:none;fill:#000000;fill-opacity:1;stroke:none;stroke-width:1.20912969;stroke-linecap:butt;stroke-linejoin:miter;stroke-miterlimit:4;stroke-dasharray:none;stroke-dashoffset:0;stroke-opacity:1"
           d="m 97.954525,208.24946 c 7.440935,-2.06409 5.728185,-14.76957 5.556245,-22.48958 -0.1597,-7.17023 -1.43313,-15.17913 -6.085413,-20.6375 -7.608986,-8.92737 -20.027006,-14.76785 -31.75,-15.17526 -12.794692,-0.44466 -26.208674,5.54603 -35.718749,14.11693 -3.545626,3.19548 -7.082575,7.94989 -6.614583,12.7 0.731959,7.42937 7.993764,13.06016 14.022916,17.4625 1.98417,1.44879 4.425365,2.52425 6.879167,2.64583 1.13123,0.056 2.562009,-0.0214 3.276415,-0.90028 0.630601,-0.77579 0.675788,-2.12125 0.187086,-2.99342 -1.172758,-2.09298 -4.48476,-1.87241 -6.361014,-3.36759 -4.702793,-3.74765 -10.715912,-7.74015 -11.786584,-13.65748 -0.544527,-3.00946 1.086708,-6.37687 3.180506,-8.60608 8.12384,-8.64923 20.689028,-14.61065 32.553428,-14.40582 11.155021,0.19258 22.942701,6.05244 30.121275,14.59291 4.089735,4.86563 5.13957,11.97934 5.23848,18.33469 0.10709,6.88116 -6.87449,13.38237 -5.051391,20.01849 0.294333,1.07138 1.281572,2.65865 2.352216,2.36166 z"
           id="path5272"
           inkscape:connector-curvature="0"
           sodipodi:nodetypes="aaaaaaaaaaaaaaaaaa" />
      </g>
      <g
         style="stroke-width:1.24820626"
         transform="matrix(0.80114963,0,0,0.80114963,11.059995,41.126583)"
         id="g5345">
        <path
           style="opacity:1;vector-effect:none;fill:#9cb030;fill-opacity:1;stroke:none;stroke-width:1.32101822;stroke-linecap:butt;stroke-linejoin:miter;stroke-miterlimit:4;stroke-dasharray:none;stroke-dashoffset:0;stroke-opacity:1"
           d="m 44.527102,231.14476 c -6.956171,3.04371 -13.963963,8.3133 -16.83798,15.34128 -1.70219,4.16245 -1.545974,9.60263 0.748355,13.47038 1.085969,1.83071 3.330409,2.99193 5.425572,3.3676 3.695803,0.66268 7.899372,-0.18457 11.038232,-2.24507 4.006156,-2.62983 6.141905,-7.47414 8.231901,-11.78659 1.789695,-3.69282 3.318205,-7.68975 3.554683,-11.78658 0.142396,-2.46691 0.652118,-5.79395 -1.309619,-7.29646 -2.882218,-2.20751 -7.525136,-0.51987 -10.851144,0.93544 z"
           id="path5338"
           inkscape:connector-curvature="0"
           sodipodi:nodetypes="aaaaaaaaa" />
        <path
           style="opacity:1;vector-effect:none;fill:#abc837;fill-opacity:1;stroke:none;stroke-width:1.32101822;stroke-linecap:butt;stroke-linejoin:miter;stroke-miterlimit:4;stroke-dasharray:none;stroke-dashoffset:0;stroke-opacity:1"
           d="m 54.255714,240.12502 c -0.220486,-1.5434 0.152799,-3.94973 -1.309621,-4.49013 -1.817171,-0.67149 -3.836327,1.53848 -4.864306,3.18051 -1.567938,2.50453 0.311533,6.20965 -1.122532,8.79317 -1.484288,2.67399 -4.251286,4.7113 -7.10937,5.79975 -1.341699,0.51096 -3.074654,-0.55609 -4.303038,0.18709 -1.912702,1.15719 -3.804767,3.60739 -3.367595,5.79974 0.321972,1.61464 2.308498,2.70162 3.928861,2.99342 3.591917,0.64684 7.369269,-1.26675 10.476965,-3.18051 3.154973,-1.94288 6.293555,-4.605 7.670636,-8.04481 1.36749,-3.41585 0.520347,-7.3958 0,-11.03823 z"
           id="path5340"
           inkscape:connector-curvature="0"
           sodipodi:nodetypes="aaaaaaaaaaa" />
        <path
           style="opacity:1;vector-effect:none;fill:#000000;fill-opacity:1;stroke:none;stroke-width:1.32101822;stroke-linecap:butt;stroke-linejoin:miter;stroke-miterlimit:4;stroke-dasharray:none;stroke-dashoffset:0;stroke-opacity:1"
           d="m 46.566666,229.79581 c -8.252687,-3.17616 -16.440363,8.88551 -20.6375,16.66875 -2.145125,3.97796 -3.271807,9.41606 -1.322916,13.49375 1.592777,3.33259 5.576206,5.82147 9.260416,6.08542 6.217857,0.44547 12.680902,-3.37932 16.933333,-7.9375 4.837756,-5.18559 7.713857,-12.75203 7.672917,-19.84375 -0.0055,-0.94987 -0.176855,-2.29189 -1.058333,-2.64584 -0.988913,-0.39709 -2.199276,0.52925 -2.910417,1.32292 -3.96427,4.42431 -1.573424,12.52572 -5.55625,16.93333 -2.911809,3.22237 -7.5746,5.60647 -11.90625,5.29167 -1.97671,-0.14365 -4.121798,-1.41191 -5.027083,-3.175 -1.372046,-2.67213 -0.833728,-6.31902 0.529167,-8.99583 2.899986,-5.69575 12.545604,-6.19642 14.816666,-12.17084 0.602792,-1.58575 0.789495,-4.41775 -0.79375,-5.02708 z"
           id="path5336"
           inkscape:connector-curvature="0"
           sodipodi:nodetypes="aaaaaaaaaaaaaa" />
      </g>
      <g
         transform="translate(-10.401752,-4.4979166)"
         id="g5359">
        <g
           id="g5364">
          <path
             sodipodi:nodetypes="cscssscccccc"
             inkscape:connector-curvature="0"
             style="opacity:1;vector-effect:none;fill:#9967a5;fill-opacity:1;stroke:none;stroke-width:1.05833328;stroke-linecap:butt;stroke-linejoin:miter;stroke-miterlimit:4;stroke-dasharray:none;stroke-dashoffset:0;stroke-opacity:1"
             d="m 54.817779,267.31105 c -5.336176,1.24935 -11.23173,5.71933 -11.896985,11.07323 -0.350922,2.82418 2.352134,5.56199 4.750524,7.0939 6.928914,4.42571 16.22083,4.96215 24.365003,3.83559 3.548289,-0.49082 8.119265,-1.30749 9.763572,-4.48987 1.350743,-2.6142 0.276025,-6.4353 -1.631866,-8.67551 -5.70544,-6.69925 -16.201094,-10.64327 -24.835888,-8.94848 -0.170706,0.0338 -0.342207,0.0709 -0.51434,0.11122 z m 2.665983,4.08377 c 0.118813,-0.0251 -3.682766,0.7792 -5e-6,-2e-5 z"
             id="path5352" />
          <path
             sodipodi:nodetypes="caccccc"
             inkscape:connector-curvature="0"
             id="path5354"
             d="m 59.120018,269.49794 c 0,0 -2.989558,3.59643 -3.367595,5.79975 -0.740469,4.31568 2.432153,12.90912 2.432153,12.90912 l -10.102789,-3.74177 -3.741772,-8.04482 8.231902,-6.73519 z"
             style="opacity:1;vector-effect:none;fill:#6f5088;fill-opacity:1;stroke:none;stroke-width:1.05833328;stroke-linecap:butt;stroke-linejoin:miter;stroke-miterlimit:4;stroke-dasharray:none;stroke-dashoffset:0;stroke-opacity:1" />
          <path
             inkscape:connector-curvature="0"
             id="path5347"
             d="m 54.050541,266.14288 c -5.885138,1.37785 -12.387189,6.3077 -13.120884,12.21239 -0.387023,3.11471 2.59411,6.13417 5.239235,7.82369 7.641724,4.881 17.889541,5.47262 26.871544,4.23016 3.913318,-0.54131 8.954531,-1.44199 10.767996,-4.95176 1.4897,-2.88314 0.304421,-7.09733 -1.799742,-9.568 -6.292387,-7.38844 -17.867778,-11.7382 -27.390874,-9.86905 -0.188345,0.037 -0.377432,0.0781 -0.567275,0.12257 z m 2.940246,4.50388 c 0.131019,-0.0277 0.261842,-0.0533 0.39232,-0.0763 7.890874,-1.38715 18.081201,1.32818 22.711967,7.86623 1.110398,1.56774 1.078091,4.19242 -0.02793,5.76324 -1.736748,2.46664 -5.495626,2.88955 -8.505516,3.0923 -7.76603,0.52315 -17.031657,0.24356 -22.817065,-4.96355 -0.977817,-0.88007 -1.608694,-2.48426 -1.238792,-3.74674 1.154751,-3.94113 5.423382,-7.07585 9.485012,-7.93521 z"
             style="opacity:1;vector-effect:none;fill:#000000;fill-opacity:1;stroke:none;stroke-width:1.05833328;stroke-linecap:butt;stroke-linejoin:miter;stroke-miterlimit:4;stroke-dasharray:none;stroke-dashoffset:0;stroke-opacity:1" />
        </g>
      </g>
      <path
         sodipodi:nodetypes="aaaaaaa"
         inkscape:connector-curvature="0"
         id="path5398"
         d="m 74.91068,202.69949 c 2.3639,-3.37 1.630893,-8.49294 0.187089,-12.34785 -1.734762,-4.63176 -4.973691,-10.84029 -9.915699,-11.03823 -4.980749,-0.19949 -10.186024,5.34971 -10.851142,10.28988 -0.739224,5.49059 3.98478,11.16315 8.606078,14.21874 1.839185,1.21606 4.356647,1.1782 6.548104,0.93544 1.922496,-0.21296 4.314803,-0.47446 5.42557,-2.05798 z"
         style="opacity:1;vector-effect:none;fill:#000000;fill-opacity:1;stroke:none;stroke-width:1.05833328;stroke-linecap:butt;stroke-linejoin:miter;stroke-miterlimit:4;stroke-dasharray:none;stroke-dashoffset:0;stroke-opacity:1" />
      <path
         style="opacity:1;vector-effect:none;fill:#000000;fill-opacity:1;stroke:none;stroke-width:1.05833328;stroke-linecap:butt;stroke-linejoin:miter;stroke-miterlimit:4;stroke-dasharray:none;stroke-dashoffset:0;stroke-opacity:1"
         d="m 79.975701,202.69949 c -1.586443,-3.37 -1.094513,-8.49294 -0.125558,-12.34785 1.16422,-4.63176 3.337905,-10.84029 6.65455,-11.03823 3.342643,-0.19949 6.835964,5.34971 7.282334,10.28988 0.4961,5.49059 -2.674233,11.16315 -5.775647,14.21874 -1.234296,1.21606 -2.923799,1.1782 -4.394513,0.93544 -1.29021,-0.21296 -2.895717,-0.47446 -3.641166,-2.05798 z"
         id="path5400"
         inkscape:connector-curvature="0"
         sodipodi:nodetypes="aaaaaaa" />
    </g>
  </g>
</svg>
