<?xml version="1.0" encoding="UTF-8" standalone="no"?>
<!-- Created with Inkscape (http://www.inkscape.org/) -->

<svg
   xmlns:dc="http://purl.org/dc/elements/1.1/"
   xmlns:cc="http://creativecommons.org/ns#"
   xmlns:rdf="http://www.w3.org/1999/02/22-rdf-syntax-ns#"
   xmlns:svg="http://www.w3.org/2000/svg"
   xmlns="http://www.w3.org/2000/svg"
   xmlns:sodipodi="http://sodipodi.sourceforge.net/DTD/sodipodi-0.dtd"
   xmlns:inkscape="http://www.inkscape.org/namespaces/inkscape"
   width="512"
   height="512"
   viewBox="0 0 135.46666 135.46667"
   version="1.1"
   id="svg8"
   sodipodi:docname="cardboard_box.svg"
   inkscape:version="0.92.2 (5c3e80d, 2017-08-06)"
   inkscape:export-filename="E:\School\CSC-221\Git\Final\klima\static\images\pets\CardboardBox.png"
   inkscape:export-xdpi="48"
   inkscape:export-ydpi="48">
  <defs
     id="defs2" />
  <sodipodi:namedview
     id="base"
     pagecolor="#ffffff"
     bordercolor="#666666"
     borderopacity="1.0"
     inkscape:pageopacity="0.0"
     inkscape:pageshadow="2"
     inkscape:zoom="1"
     inkscape:cx="184.65674"
     inkscape:cy="214.2969"
     inkscape:document-units="px"
     inkscape:current-layer="layer1"
     showgrid="false"
     inkscape:snap-global="false"
     inkscape:window-width="1920"
     inkscape:window-height="1028"
     inkscape:window-x="-8"
     inkscape:window-y="-8"
     inkscape:window-maximized="1"
     units="px" />
  <metadata
     id="metadata5">
    <rdf:RDF>
      <cc:Work
         rdf:about="">
        <dc:format>image/svg+xml</dc:format>
        <dc:type
           rdf:resource="http://purl.org/dc/dcmitype/StillImage" />
        <dc:title></dc:title>
      </cc:Work>
    </rdf:RDF>
  </metadata>
  <g
     inkscape:label="Layer 1"
     inkscape:groupmode="layer"
     id="layer1"
     transform="translate(0,-161.53331)">
    <path
       style="opacity:1;vector-effect:none;fill:#ac5a36;fill-opacity:1;stroke:#000000;stroke-width:2.11666664;stroke-linecap:butt;stroke-linejoin:miter;stroke-miterlimit:4;stroke-dasharray:none;stroke-dashoffset:0;stroke-opacity:1"
       d="m 26.458333,213.39164 8.73125,52.12292 41.274999,19.05 26.987498,-27.25209 4.49792,-46.56666 z"
       id="path5203"
       inkscape:connector-curvature="0"
       sodipodi:nodetypes="cccccc" />
    <path
       style="opacity:1;vector-effect:none;fill:#aa6f55;fill-opacity:1;stroke:none;stroke-width:1.05833328;stroke-linecap:butt;stroke-linejoin:miter;stroke-miterlimit:4;stroke-dasharray:none;stroke-dashoffset:0;stroke-opacity:1"
       d="m 47.757291,259.29685 c -1.49839,0.91486 -2.069908,3.01605 -2.248958,4.7625 -0.13417,1.30869 0.664422,2.54719 0.926041,3.83646 0.117517,0.57913 0.288659,1.74913 0.288659,1.74913 l 29.438218,13.54855 13.830154,-13.8094 c 0,0 2.081784,-3.43701 1.422136,-5.06016 -1.093495,-2.69069 -4.719223,-5.05498 -7.540625,-4.36562 -2.23411,0.54586 -1.944316,4.34024 -3.704167,5.82083 -0.877334,0.73811 -2.03781,1.46895 -3.175,1.32292 -3.901523,-0.50102 -5.686658,-5.82538 -9.392708,-7.14375 -6.235467,-2.21817 -14.195126,-4.11028 -19.84375,-0.66146 z"
       id="path5243"
       inkscape:connector-curvature="0"
       sodipodi:nodetypes="aaacccaaaaaa" />
    <path
       style="opacity:1;vector-effect:none;fill:#8d412c;fill-opacity:1;stroke:#000000;stroke-width:2.11666664;stroke-linecap:butt;stroke-linejoin:miter;stroke-miterlimit:4;stroke-dasharray:none;stroke-dashoffset:0;stroke-opacity:1"
       d="M 77.522916,232.17706 107.95,210.74581 60.589583,195.66456 26.458333,213.39164"
       id="path5199"
       inkscape:connector-curvature="0"
       sodipodi:nodetypes="cccc" />
    <path
       style="opacity:1;vector-effect:none;fill:none;fill-opacity:1;stroke:#000000;stroke-width:2.11666664;stroke-linecap:butt;stroke-linejoin:miter;stroke-miterlimit:4;stroke-dasharray:none;stroke-dashoffset:0;stroke-opacity:1"
       d="m 60.589583,195.66456 0.588412,27.2483"
       id="path5227"
       inkscape:connector-curvature="0"
       sodipodi:nodetypes="cc" />
    <g
       transform="matrix(0.82605266,0,0,1,40.853761,-7.4083334)"
       id="g4523"
       style="stroke-width:1.10026205" />
    <g
       id="g4634"
       transform="matrix(1.1671726,0,0,1.1671726,-193.45525,105.115)"
       style="stroke-width:0.85677135">
      <path
         inkscape:connector-curvature="0"
         id="path4542"
         d="m 67.601041,119.59687 5.820833,-5.02708 3.175,-9.65729 -4.101042,-8.863544 -16.536458,-1.5875 -8.069791,10.847914 4.365625,10.58334 8.863541,3.96875 z"
         style="opacity:1;vector-effect:none;fill:#f1caea;fill-opacity:1;stroke:none;stroke-width:0.90674961;stroke-linecap:butt;stroke-linejoin:miter;stroke-miterlimit:4;stroke-dasharray:none;stroke-dashoffset:0;stroke-opacity:1" />
      <path
         sodipodi:nodetypes="caaccccc"
         inkscape:connector-curvature="0"
         id="path4629"
         d="m 71.437499,96.18125 c 0,0 -9.095422,1.456774 -12.170833,4.49792 -2.282724,2.25729 -3.151278,5.79848 -3.439583,8.99583 -0.257868,2.8598 1.5875,8.46667 1.5875,8.46667 l -7.9375,-5.82084 -0.529167,-10.58333 11.377083,-7.672917 z"
         style="opacity:1;vector-effect:none;fill:#ab99e4;fill-opacity:1;stroke:none;stroke-width:0.90674961;stroke-linecap:butt;stroke-linejoin:miter;stroke-miterlimit:4;stroke-dasharray:none;stroke-dashoffset:0;stroke-opacity:1" />
      <path
         inkscape:connector-curvature="0"
         id="path4537"
         d="m 70.803935,93.815647 c -2.715112,-1.571146 -5.888489,-2.421519 -8.809959,-2.188684 -6.490299,0.517263 -13.98931,5.159482 -15.864788,11.394387 -1.551559,5.15806 1.5663,11.70569 5.746251,15.10288 4.309612,3.50257 11.341476,4.78558 16.45366,2.61615 4.241176,-1.7998 6.595513,-6.91359 7.923178,-11.32541 1.037349,-3.4471 1.652818,-7.75819 -0.278876,-10.795812 -1.223184,-1.923475 -3.057713,-3.58151 -5.169466,-4.803511 z m 0.943388,4.280489 c 0.875311,0.474662 1.64896,1.082686 2.263024,1.844674 1.96516,2.43855 1.500397,6.42652 0.469354,9.38377 -1.275553,3.65856 -3.957187,7.63217 -7.672444,8.73167 -4.266343,1.2626 -9.843861,-0.33545 -12.848253,-3.61711 -2.493467,-2.72358 -3.539165,-7.50654 -2.051452,-10.88619 1.701492,-3.86529 6.588092,-6.06583 10.766673,-6.678226 2.904832,-0.42572 6.447163,-0.202582 9.073098,1.221412 z"
         style="opacity:1;vector-effect:none;fill:#000000;fill-opacity:1;stroke:none;stroke-width:0.90674961;stroke-linecap:butt;stroke-linejoin:miter;stroke-miterlimit:4;stroke-dasharray:none;stroke-dashoffset:0;stroke-opacity:1" />
    </g>
    <g
       id="g4627"
       transform="matrix(1.1671726,0,0,1.1671726,-193.45525,105.115)"
       style="stroke-width:0.85677135">
      <path
         inkscape:connector-curvature="0"
         id="path4509"
         d="m 101.86458,93.8 20.10834,2.910417 13.75833,5.820833 9.26041,9.78958 3.70417,12.43542 -2.11667,9.26042 -11.64166,6.35 -22.48958,2.91041 -24.341671,-3.70416 -19.05,-8.99584 -8.202083,-15.875 10.583333,-13.49375 18.25625,-5.82083 z"
         style="opacity:1;vector-effect:none;fill:#de87aa;fill-opacity:1;stroke:#000000;stroke-width:0.90674961;stroke-linecap:butt;stroke-linejoin:miter;stroke-miterlimit:4;stroke-dasharray:none;stroke-dashoffset:0;stroke-opacity:1" />
      <path
         sodipodi:nodetypes="caacccccc"
         inkscape:connector-curvature="0"
         id="path4544"
         d="m 93.927082,95.3875 c 0,0 -12.1936,6.46173 -14.022916,12.43542 -2.079433,6.79045 1.023296,14.96165 5.291666,20.6375 5.536471,7.3621 23.812498,14.02291 23.812498,14.02291 L 86.518749,139.8375 63.764583,124.22708 62.177083,110.20417 76.729166,98.827083 Z"
         style="opacity:1;vector-effect:none;fill:#a96bd7;fill-opacity:1;stroke:none;stroke-width:0.90674961;stroke-linecap:butt;stroke-linejoin:miter;stroke-miterlimit:4;stroke-dasharray:none;stroke-dashoffset:0;stroke-opacity:1" />
      <path
         id="path4504"
         d="m 103.72597,91.818168 c -1.85741,-0.01887 -3.71516,0.02655 -5.565555,0.129706 -4.807016,0.267978 -9.624311,0.919216 -14.287499,2.116667 -3.18938,0.818997 -6.439914,1.740271 -9.260417,3.439583 -5.671272,3.416866 -12.428106,7.053966 -14.816666,13.229166 -1.535449,3.96963 -0.528744,8.86765 1.322916,12.7 2.469047,5.11015 7.173561,9.21607 12.170833,11.90625 12.474766,6.71553 27.374608,9.26312 41.539588,8.99583 10.65065,-0.20098 22.99917,-0.85499 30.95624,-7.9375 2.75274,-2.45016 3.90895,-6.63402 3.96875,-10.31875 0.10449,-6.44218 -2.47733,-13.10698 -6.35,-18.25625 -4.22124,-5.61276 -10.80177,-9.270591 -17.19791,-12.170829 -4.13019,-1.872774 -8.73587,-2.561844 -13.22917,-3.175 -3.06041,-0.417621 -6.15543,-0.627446 -9.25111,-0.658873 z m -3.855582,4.897892 c 2.264182,-0.0065 4.523362,0.08521 6.756692,0.258898 9.10776,0.708316 18.52326,2.617451 26.45833,7.143752 4.3881,2.50303 8.34236,6.19668 10.84792,10.58333 2.20671,3.86343 3.99018,8.59066 3.175,12.96458 -0.64998,3.48751 -3.16775,6.71321 -6.08542,8.73125 -5.61193,3.88159 -13.03019,4.65816 -19.84374,5.02709 -12.62873,0.68381 -25.846378,-0.54939 -37.570838,-5.29167 -6.672307,-2.6988 -13.649467,-6.59558 -17.4625,-12.7 -1.613138,-2.58253 -2.025927,-5.98262 -1.587499,-8.99583 0.369138,-2.537 1.728025,-4.97045 3.439583,-6.87917 3.152108,-3.51521 7.455783,-6.09626 11.90625,-7.672916 6.334474,-2.244098 13.173675,-3.14974 19.966222,-3.169314 z"
         style="opacity:1;vector-effect:none;fill:#000000;fill-opacity:1;stroke:none;stroke-width:0.90674961;stroke-linecap:butt;stroke-linejoin:miter;stroke-miterlimit:4;stroke-dasharray:none;stroke-dashoffset:0;stroke-opacity:1"
         inkscape:connector-curvature="0" />
    </g>
    <g
       id="g4517"
       transform="matrix(1.1671726,0,0,1.1671726,-196.54339,102.64449)"
       style="stroke-width:0.85677135">
      <path
         sodipodi:nodetypes="czzzzzcac"
         inkscape:connector-curvature="0"
         id="path4513"
         d="m 106.62708,115.23125 c 0,0 -7.235508,-16.49196 -7.408331,-22.489583 -0.172823,-5.997623 1.205411,-9.36045 3.175001,-11.90625 1.96959,-2.5458 3.61244,-3.507437 6.08542,-3.439583 2.47298,0.06785 4.62936,1.427089 6.61458,4.233333 1.98522,2.806244 2.56043,6.904138 2.91042,12.435416 0.34999,5.531278 -2.11667,20.372917 -2.11667,20.372917 0,0 -3.57443,2.0959 -5.55625,2.11667 -1.31103,0.0137 -3.70417,-1.32292 -3.70417,-1.32292 z"
         style="opacity:1;vector-effect:none;fill:#de87aa;fill-opacity:1;stroke:none;stroke-width:0.90674961;stroke-linecap:butt;stroke-linejoin:miter;stroke-miterlimit:4;stroke-dasharray:none;stroke-dashoffset:0;stroke-opacity:1" />
      <path
         style="opacity:1;vector-effect:none;fill:#a96bd7;fill-opacity:1;stroke:none;stroke-width:0.90674961;stroke-linecap:butt;stroke-linejoin:miter;stroke-miterlimit:4;stroke-dasharray:none;stroke-dashoffset:0;stroke-opacity:1"
         d="m 106.62708,77.660417 c 0,0 -2.15602,7.163963 -2.11667,10.847917 0.0887,8.302929 5.29167,24.341666 5.29167,24.341666 l -2.38125,3.175 -6.87917,-21.43125 0.52917,-13.229166 z"
         id="path4546"
         inkscape:connector-curvature="0"
         sodipodi:nodetypes="caccccc" />
      <path
         sodipodi:nodetypes="caaaaaccaaaaacc"
         inkscape:connector-curvature="0"
         id="path4511"
         d="m 105.56875,116.28958 c 0,0 -5.12475,-10.10878 -6.085413,-15.61041 -1.16851,-6.692011 -2.96704,-14.548402 0.529163,-20.37292 1.56513,-2.607436 4.904,-4.712934 7.9375,-4.497916 3.8888,0.275643 7.35828,3.740725 9.26042,7.14375 2.85597,5.109467 1.92011,11.609412 1.85208,17.462496 -0.0558,4.80202 -1.85208,14.2875 -1.85208,14.2875 h -2.64583 c 0,0 1.34823,-10.21164 1.32291,-15.34583 -0.0227,-4.607207 0.72846,-9.632954 -1.32291,-13.758333 -1.33397,-2.682658 -3.63283,-5.793461 -6.61459,-6.085417 -1.85161,-0.181298 -3.87605,1.274714 -4.7625,2.910417 -2.90073,5.352492 -0.41693,12.242242 0.52917,18.256253 0.78507,4.9904 4.23333,14.55208 4.23333,14.55208 z"
         style="opacity:1;vector-effect:none;fill:#000000;fill-opacity:1;stroke:none;stroke-width:0.90674961;stroke-linecap:butt;stroke-linejoin:miter;stroke-miterlimit:4;stroke-dasharray:none;stroke-dashoffset:0;stroke-opacity:1" />
    </g>
    <path
       style="opacity:1;vector-effect:none;fill:#de87aa;fill-opacity:1;stroke:none;stroke-width:1.05833328;stroke-linecap:butt;stroke-linejoin:miter;stroke-miterlimit:4;stroke-dasharray:none;stroke-dashoffset:0;stroke-opacity:1"
       d="m -42.967772,230.96296 c 0,0 -6.976099,-19.24896 -7.142724,-26.24923 -0.166626,-7.00026 1.1622,-10.92526 3.061164,-13.89665 1.89898,-2.97139 3.48293,-4.09377 5.86724,-4.01458 2.38432,0.0793 4.46337,1.66566 6.37742,4.94103 1.91405,3.27537 2.46863,8.05832 2.80607,14.51428 0.33744,6.45596 -2.04078,23.77871 -2.04078,23.77871 0,0 -3.44627,2.44628 -5.35704,2.47052 -1.26402,0.016 -3.57135,-1.54408 -3.57135,-1.54408 z"
       id="path4519"
       inkscape:connector-curvature="0"
       sodipodi:nodetypes="czzzzzcac" />
    <path
       style="opacity:1;vector-effect:none;fill:#a96bd7;fill-opacity:1;stroke:none;stroke-width:1.05833328;stroke-linecap:butt;stroke-linejoin:miter;stroke-miterlimit:4;stroke-dasharray:none;stroke-dashoffset:0;stroke-opacity:1"
       d="m -43.256742,186.8025 c 0,0 -2.22886,8.36158 -2.18817,12.66139 0.0917,9.69096 5.47044,28.41093 5.47044,28.41093 l -2.4617,3.70578 -7.11156,-25.01398 0.547042,-15.44072 z"
       id="path4546-7"
       inkscape:connector-curvature="0"
       sodipodi:nodetypes="caccccc" />
    <path
       style="opacity:1;vector-effect:none;fill:#000000;fill-opacity:1;stroke:none;stroke-width:1.05833328;stroke-linecap:butt;stroke-linejoin:miter;stroke-miterlimit:4;stroke-dasharray:none;stroke-dashoffset:0;stroke-opacity:1"
       d="m -43.988162,232.19822 c 0,0 -4.941004,-11.79869 -5.867225,-18.22004 -1.126614,-7.81075 -2.860659,-16.98051 0.510183,-23.77872 1.509014,-3.04333 4.728182,-5.50081 7.652922,-5.24985 3.74937,0.32172 7.09444,4.36607 8.92839,8.33799 2.75357,5.96363 1.85126,13.55019 1.78568,20.38175 -0.0538,5.60479 -1.78568,16.67598 -1.78568,16.67598 h -2.55096 c 0,0 1.29989,-11.91875 1.27547,-17.91123 -0.0219,-5.37741 0.70235,-11.24333 -1.27547,-16.05836 -1.28615,-3.13113 -3.50258,-6.76197 -6.37743,-7.10272 -1.78523,-0.21161 -3.73708,1.4878 -4.59175,3.39695 -2.796726,6.24728 -0.40199,14.28881 0.51019,21.30821 0.75692,5.82465 4.08156,16.98478 4.08156,16.98478 z"
       id="path4521"
       inkscape:connector-curvature="0"
       sodipodi:nodetypes="caaaaaccaaaaacc" />
    <g
       id="g4622"
       transform="matrix(1.1671726,0,0,1.1671726,-193.45525,105.115)"
       style="stroke-width:0.85677135">
      <ellipse
         ry="6.0854168"
         rx="2.778125"
         cy="122.90417"
         cx="121.84062"
         id="path4527"
         style="opacity:1;vector-effect:none;fill:#000000;fill-opacity:1;stroke:none;stroke-width:0.91400367;stroke-linecap:butt;stroke-linejoin:miter;stroke-miterlimit:4;stroke-dasharray:none;stroke-dashoffset:0;stroke-opacity:1" />
      <path
         sodipodi:nodetypes="caaccaacc"
         inkscape:connector-curvature="0"
         id="path4529"
         d="m 127.10375,119.72896 c 0,0 0.15013,-3.67223 -0.94957,-4.93659 -1.39991,-1.60951 -3.92581,-2.1812 -6.05596,-2.06831 -1.81563,0.0962 -4.94652,2.29866 -4.94652,2.29866 l 1.1293,1.66881 c 0,0 2.39964,-1.46806 3.74738,-1.52913 1.69471,-0.0768 3.77555,0.18982 4.86674,1.48876 0.85282,1.01519 0.48984,3.94729 0.48984,3.94729 z"
         style="opacity:1;vector-effect:none;fill:#000000;fill-opacity:1;stroke:none;stroke-width:0.90674961;stroke-linecap:butt;stroke-linejoin:miter;stroke-miterlimit:4;stroke-dasharray:none;stroke-dashoffset:0;stroke-opacity:1" />
      <ellipse
         style="opacity:1;vector-effect:none;fill:#000000;fill-opacity:1;stroke:none;stroke-width:0.91400367;stroke-linecap:butt;stroke-linejoin:miter;stroke-miterlimit:4;stroke-dasharray:none;stroke-dashoffset:0;stroke-opacity:1"
         id="ellipse4531"
         cx="136.39272"
         cy="118.93542"
         rx="2.778125"
         ry="6.0854168" />
      <path
         style="opacity:1;vector-effect:none;fill:#000000;fill-opacity:1;stroke:none;stroke-width:0.90674961;stroke-linecap:butt;stroke-linejoin:miter;stroke-miterlimit:4;stroke-dasharray:none;stroke-dashoffset:0;stroke-opacity:1"
         d="m 141.65583,115.76021 c 0,0 0.15013,-3.67223 -0.94957,-4.93659 -1.39991,-1.60951 -3.92581,-2.1812 -6.05596,-2.06831 -1.81563,0.0962 -4.94652,2.29866 -4.94652,2.29866 l 1.1293,1.66881 c 0,0 2.39964,-1.46806 3.74738,-1.52913 1.69471,-0.0768 3.77555,0.18982 4.86674,1.48876 0.85282,1.01519 0.48984,3.94729 0.48984,3.94729 z"
         id="path4533"
         inkscape:connector-curvature="0"
         sodipodi:nodetypes="caaccaacc" />
      <path
         sodipodi:nodetypes="caaaccaaacc"
         inkscape:connector-curvature="0"
         id="path4535"
         d="m 130.96875,127.40208 c 0,0 3.25353,-1.66464 4.7625,-1.05833 1.77037,0.71135 3.175,2.85456 3.175,4.7625 0,1.90794 -1.39932,4.06452 -3.175,4.7625 -1.77188,0.69649 -5.55625,-1.32292 -5.55625,-1.32292 l 0.52917,-1.85208 c 0,0 2.50486,1.189 3.70416,0.79375 0.94952,-0.31293 1.91696,-1.25148 1.98438,-2.24896 0.0751,-1.11043 -0.82691,-2.34488 -1.85209,-2.77813 -1.11536,-0.47136 -3.57187,0.66146 -3.57187,0.66146 z"
         style="opacity:1;vector-effect:none;fill:#000000;fill-opacity:1;stroke:none;stroke-width:0.90674961;stroke-linecap:butt;stroke-linejoin:miter;stroke-miterlimit:4;stroke-dasharray:none;stroke-dashoffset:0;stroke-opacity:1" />
    </g>
    <path
       style="opacity:1;vector-effect:none;fill:#ac5a36;fill-opacity:1;stroke:#000000;stroke-width:2.11666656;stroke-linecap:butt;stroke-linejoin:miter;stroke-miterlimit:4;stroke-dasharray:none;stroke-dashoffset:0;stroke-opacity:1"
       d="M 60.589583,195.66456 65.616666,174.4979 128.5875,191.16664 107.95,210.74581 Z"
       id="path5197"
       inkscape:connector-curvature="0"
       sodipodi:nodetypes="ccccc" />
    <path
       style="opacity:1;vector-effect:none;fill:#ac5a36;fill-opacity:1;stroke:none;stroke-width:2.11666656;stroke-linecap:butt;stroke-linejoin:miter;stroke-miterlimit:4;stroke-dasharray:none;stroke-dashoffset:0;stroke-opacity:1"
       d="M 27.516666,215.11143 10.847923,189.84373 83.34375,215.7729 77.522916,232.17706"
       id="path5201"
       inkscape:connector-curvature="0"
       sodipodi:nodetypes="cccc" />
    <path
       style="opacity:1;vector-effect:none;fill:none;fill-opacity:1;stroke:#000000;stroke-width:2.11666664;stroke-linecap:butt;stroke-linejoin:miter;stroke-miterlimit:4;stroke-dasharray:none;stroke-dashoffset:0;stroke-opacity:1"
       d="m 76.464582,284.56456 1.058334,-52.3875"
       id="path5205"
       inkscape:connector-curvature="0" />
    <path
       sodipodi:nodetypes="cccc"
       inkscape:connector-curvature="0"
       id="path5223"
       d="m 35.189583,265.51456 -8.73125,-52.12292 -15.61041,-23.54791 72.495827,25.92917 -5.820834,16.40416 -1.058334,52.3875"
       style="opacity:1;vector-effect:none;fill:none;fill-opacity:1;stroke:#000000;stroke-width:2.11666656;stroke-linecap:butt;stroke-linejoin:miter;stroke-miterlimit:4;stroke-dasharray:none;stroke-dashoffset:0;stroke-opacity:1" />
    <path
       style="opacity:1;vector-effect:none;fill:none;fill-opacity:1;stroke:#000000;stroke-width:1.05833328;stroke-linecap:butt;stroke-linejoin:miter;stroke-miterlimit:4;stroke-dasharray:none;stroke-dashoffset:0;stroke-opacity:1"
       d="m 26.458333,213.39164 51.064583,18.78542"
       id="path5225"
       inkscape:connector-curvature="0" />
    <path
       style="opacity:1;vector-effect:none;fill:#000000;fill-opacity:1;stroke:none;stroke-width:1.05833328;stroke-linecap:butt;stroke-linejoin:miter;stroke-miterlimit:4;stroke-dasharray:none;stroke-dashoffset:0;stroke-opacity:1"
       d="m 81.38357,240.68628 4.49013,14.40583 5.799748,-3.55468 0.374176,-18.70887 z"
       id="path5229"
       inkscape:connector-curvature="0"
       sodipodi:nodetypes="ccccc" />
    <path
       sodipodi:nodetypes="ccccc"
       inkscape:connector-curvature="0"
       id="path5231"
       d="m 94.853954,233.38983 3.308514,14.40583 3.899322,-2.05797 0.83698,-18.52178 z"
       style="opacity:1;vector-effect:none;fill:#000000;fill-opacity:1;stroke:none;stroke-width:1.05833328;stroke-linecap:butt;stroke-linejoin:miter;stroke-miterlimit:4;stroke-dasharray:none;stroke-dashoffset:0;stroke-opacity:1" />
    <path
       style="opacity:1;vector-effect:none;fill:#000000;fill-opacity:1;stroke:none;stroke-width:1.05833328;stroke-linecap:butt;stroke-linejoin:miter;stroke-miterlimit:4;stroke-dasharray:none;stroke-dashoffset:0;stroke-opacity:1"
       d="m 94.853955,246.67312 5.425565,8.60608 -6.922276,5.61266 2.619242,-5.61266 z"
       id="path5233"
       inkscape:connector-curvature="0" />
    <path
       style="opacity:1;vector-effect:none;fill:#000000;fill-opacity:1;stroke:none;stroke-width:1.05833328;stroke-linecap:butt;stroke-linejoin:miter;stroke-miterlimit:4;stroke-dasharray:none;stroke-dashoffset:0;stroke-opacity:1"
       d="m 74.92991,228.13175 12.79587,6.07439 3.048534,-5.62664 -14.637394,-4.77665 z"
       id="path5235"
       inkscape:connector-curvature="0" />
    <path
       inkscape:connector-curvature="0"
       id="path5237"
       d="m 104.9971,220.54008 -7.199235,10.13335 -4.750304,-2.99015 9.167229,-9.93237 z"
       style="opacity:1;vector-effect:none;fill:#000000;fill-opacity:1;stroke:none;stroke-width:1.05833328;stroke-linecap:butt;stroke-linejoin:miter;stroke-miterlimit:4;stroke-dasharray:none;stroke-dashoffset:0;stroke-opacity:1" />
    <ellipse
       style="opacity:1;vector-effect:none;fill:#ffffff;fill-opacity:1;stroke:none;stroke-width:2.11666656;stroke-linecap:butt;stroke-linejoin:miter;stroke-miterlimit:4;stroke-dasharray:none;stroke-dashoffset:0;stroke-opacity:1"
       id="path5239"
       cx="87.510933"
       cy="244.61247"
       rx="1.7859374"
       ry="3.5718749" />
    <ellipse
       ry="3.5718749"
       rx="1.1244791"
       cy="238.92393"
       cx="99.68177"
       id="ellipse5241"
       style="opacity:1;vector-effect:none;fill:#ffffff;fill-opacity:1;stroke:none;stroke-width:2.11666656;stroke-linecap:butt;stroke-linejoin:miter;stroke-miterlimit:4;stroke-dasharray:none;stroke-dashoffset:0;stroke-opacity:1" />
  </g>
</svg>
